# xmcd
#
# Track frame offsets: 
#        150
#        13069
#        22766
#        37989
#        51528
#        69049
#        82330
#        95186
#        110551
#        127587
#        139003
#        151684
#        163802
#
# Disc length: 2364 seconds
#
# Revision: 4
# Processed by: cddbd v1.5.2PL0 Copyright (c) Steve Scherf et al.
# Submitted via: ExactAudioCopyFreeDBPlugin 1.0
#
DISCID=a1093a0d
DTITLE=Elizabeth Cook - This Side Of The Moon
DYEAR=2005
DGENRE=Country
TTITLE0=Cupid
TTITLE1=Funny Side Of Love
TTITLE2=Before I Go That Far
TTITLE3=Here's To You
TTITLE4=This Side Of The Moon
TTITLE5=Kiss Me Again
TTITLE6=Ruthless
TTITLE7=Alone Down Here
TTITLE8=Hard-Hearted
TTITLE9=Heather Are You With Me Tonight
TTITLE10=All We Need Is Love
TTITLE11=Where The Blue Begins
TTITLE12=Somebody's Gotta Do It
EXTD=
EXTT0=
EXTT1=
EXTT2=
EXTT3=
EXTT4=
EXTT5=
EXTT6=
EXTT7=
EXTT8=
EXTT9=
EXTT10=
EXTT11=
EXTT12=
PLAYORDER=
